<?xml version="1.0" encoding="UTF-8" standalone="no"?>
<!-- Created with Inkscape (http://www.inkscape.org/) -->

<svg
   xmlns:dc="http://purl.org/dc/elements/1.1/"
   xmlns:cc="http://creativecommons.org/ns#"
   xmlns:rdf="http://www.w3.org/1999/02/22-rdf-syntax-ns#"
   xmlns:svg="http://www.w3.org/2000/svg"
   xmlns="http://www.w3.org/2000/svg"
   xmlns:sodipodi="http://sodipodi.sourceforge.net/DTD/sodipodi-0.dtd"
   xmlns:inkscape="http://www.inkscape.org/namespaces/inkscape"
   width="277.9577mm"
   height="123.53819mm"
   viewBox="0 0 277.95771 123.53818"
   version="1.1"
   id="svg1974"
   inkscape:version="0.92.3 (2405546, 2018-03-11)"
   sodipodi:docname="normalLogo.svg"
   inkscape:export-filename="C:\Users\Sam\Documents\Cootbie\Official Logos\normalLogo.png"
   inkscape:export-xdpi="96"
   inkscape:export-ydpi="96">
  <defs
     id="defs1968" />
  <sodipodi:namedview
     id="base"
     pagecolor="#ffffff"
     bordercolor="#666666"
     borderopacity="1.0"
     inkscape:pageopacity="0"
     inkscape:pageshadow="2"
     inkscape:zoom="4.1169646"
     inkscape:cx="756.15917"
     inkscape:cy="181.29419"
     inkscape:document-units="mm"
     inkscape:current-layer="layer1"
     showgrid="false"
     inkscape:pagecheckerboard="true"
     fit-margin-top="30"
     fit-margin-left="30"
     fit-margin-right="30"
     fit-margin-bottom="30"
     inkscape:window-width="1920"
     inkscape:window-height="1051"
     inkscape:window-x="-9"
     inkscape:window-y="892"
     inkscape:window-maximized="1" />
  <metadata
     id="metadata1971">
    <rdf:RDF>
      <cc:Work
         rdf:about="">
        <dc:format>image/svg+xml</dc:format>
        <dc:type
           rdf:resource="http://purl.org/dc/dcmitype/StillImage" />
        <dc:title></dc:title>
      </cc:Work>
    </rdf:RDF>
  </metadata>
  <g
     inkscape:label="Layer 1"
     inkscape:groupmode="layer"
     id="layer1"
     transform="translate(43.450167,39.972462)">
    <path
       id="text4055-8-2-6-5-1-8-2"
       transform="matrix(0.26458333,0,0,0.26458333,-43.450167,-39.972462)"
       style="font-style:normal;font-variant:normal;font-weight:normal;font-stretch:normal;font-size:68.2195282px;line-height:1.25;font-family:'Freestyle Script';-inkscape-font-specification:'Freestyle Script';letter-spacing:0px;word-spacing:0px;fill:#0b0c4d;fill-opacity:1;stroke:none;stroke-width:3.02153373"
       d="m 587.625,184.10352 v 20.04882 h 20.49023 V 329.8457 H 587.625 v 20.26953 h 42.63281 v -17.40625 c 4.33297,6.02209 10.28138,10.75926 17.84571,14.21094 7.63776,3.45168 15.67939,5.17774 24.125,5.17774 10.64881,0 20.26884,-2.75372 28.86132,-8.26172 8.59249,-5.58145 15.31312,-13.0364 20.16016,-22.36328 4.92048,-9.32689 7.38086,-19.49767 7.38086,-30.51368 0,-10.64881 -2.42445,-20.56217 -7.27148,-29.74218 -4.77361,-9.18001 -11.45635,-16.45138 -20.04883,-21.8125 -8.59249,-5.43457 -18.21252,-8.15235 -28.86133,-8.15235 -16.52402,0 -30.58788,6.53705 -42.19141,19.60938 v -66.75781 z m -32.49805,11.89843 -22.80273,20.82032 v 17.51367 h -15.0918 v 20.38086 h 15.0918 v 65.43554 c 0,11.67697 2.09321,19.93812 6.2793,24.78516 4.18608,4.7736 11.05241,7.16016 20.5996,7.16016 4.33297,0 10.02593,-1.02767 17.07618,-3.08399 v -20.59961 c -4.03921,1.39536 -8.07994,2.0918 -12.11914,2.0918 -3.30481,0 -5.65347,-0.91791 -7.04883,-2.75391 -1.32192,-1.90944 -1.98438,-6.02204 -1.98438,-12.33789 V 254.7168 h 21.15235 v -20.38086 h -21.15235 z m -384.89843,35.25 c -10.64881,0 -20.30673,2.60802 -28.97266,7.82227 -8.66593,5.1408 -15.49631,12.33835 -20.49024,21.5918 -4.92047,9.25344 -7.3789,19.53398 -7.3789,30.84375 0,11.53009 2.42249,22.0321 7.26953,31.50585 4.92048,9.47377 11.86062,16.92872 20.82031,22.36329 8.95969,5.43456 19.20429,8.15039 30.73438,8.15039 25.77746,0 43.99181,-11.52967 54.64062,-34.58985 l -18.94922,-9.0332 c -6.75648,15.20209 -18.32208,22.80273 -34.69922,22.80273 -10.57535,0 -19.09391,-3.81731 -25.55664,-11.45507 -6.46272,-7.71121 -9.69531,-17.62653 -9.69531,-29.74414 0,-7.12369 1.43271,-13.69667 4.29688,-19.71875 2.86416,-6.02209 6.90294,-10.79519 12.11718,-14.32032 5.28769,-3.52512 11.2361,-5.28711 17.84571,-5.28711 7.7112,0 14.50565,2.23891 20.38086,6.71875 5.8752,4.40641 9.25348,10.83174 10.13476,19.27735 h 20.26953 v -43.84375 h -20.26953 v 8.37304 c -9.03313,-7.63776 -19.86635,-11.45703 -32.49804,-11.45703 z m 131.42187,0 c -11.75041,0 -22.25241,2.64396 -31.50586,7.93164 -9.25345,5.21425 -16.48888,12.44773 -21.70312,21.70118 -5.14081,9.25344 -7.71094,19.75545 -7.71094,31.50585 0,11.23634 2.57013,21.51882 7.71094,30.84571 5.21424,9.32689 12.48561,16.70801 21.8125,22.14258 9.32688,5.43456 19.79295,8.15039 31.39648,8.15039 11.23633,0 21.48093,-2.71583 30.73438,-8.15039 9.25344,-5.43457 16.56075,-12.81569 21.92187,-22.14258 5.36113,-9.32689 8.04102,-19.60937 8.04102,-30.84571 0,-11.01599 -2.64396,-21.18678 -7.93164,-30.51367 -5.28769,-9.32689 -12.55906,-16.74395 -21.8125,-22.25195 -9.25345,-5.58144 -19.56992,-8.37305 -30.95313,-8.37305 z m 138.80078,0 c -11.75041,0 -22.25241,2.64396 -31.50586,7.93164 -9.25345,5.21425 -16.48692,12.44773 -21.70117,21.70118 -5.1408,9.25344 -7.71094,19.75545 -7.71094,31.50585 0,11.23634 2.57014,21.51882 7.71094,30.84571 5.21425,9.32689 12.48366,16.70801 21.81055,22.14258 9.32689,5.43456 19.79295,8.15039 31.39648,8.15039 11.23633,0 21.48093,-2.71583 30.73438,-8.15039 9.25345,-5.43457 16.56075,-12.81569 21.92187,-22.14258 5.36113,-9.32689 8.04102,-19.60937 8.04102,-30.84571 0,-11.01599 -2.64201,-21.18678 -7.92969,-30.51367 -5.28768,-9.32689 -12.55905,-16.74395 -21.8125,-22.25195 -9.25345,-5.58144 -19.57187,-8.37305 -30.95508,-8.37305 z m 434.91211,0 c -11.16289,0 -21.37155,2.64396 -30.625,7.93164 -9.25345,5.21425 -16.56075,12.48562 -21.92187,21.8125 -5.28769,9.32689 -7.93164,19.79101 -7.93164,31.39453 0,11.67698 2.68184,22.17898 8.04296,31.50586 5.43457,9.32689 12.99732,16.59826 22.69141,21.8125 9.69409,5.21425 20.78472,7.82032 33.26953,7.82032 12.04417,0 23.17074,-2.49631 33.37891,-7.49024 10.28161,-5.06736 18.57868,-12.52231 24.89453,-22.36328 l -20.04883,-9.03125 c -4.4064,6.53617 -9.8779,11.38309 -16.41406,14.54102 -6.53617,3.15792 -13.622,4.73633 -21.25977,4.73633 -10.42849,-10e-6 -19.24232,-3.1947 -26.43945,-9.58399 -7.19713,-6.46273 -11.49331,-15.23867 -12.88867,-26.32812 h 97.05078 c -0.44064,-13.65986 -3.26622,-25.48481 -8.48047,-35.47266 -5.21424,-10.06129 -12.37585,-17.77169 -21.48242,-23.13281 -9.03313,-5.43457 -19.64489,-8.15235 -31.83594,-8.15235 z m -132.63281,3.08399 v 20.38086 h 18.06641 v 75.1289 h -18.06641 v 20.26953 h 58.49414 V 329.8457 h -17.625 v -95.50976 z m 133.07422,15.86328 c 9.03313,0 17.00093,2.90136 23.90429,8.70312 6.90337,5.72833 11.41907,13.32897 13.54883,22.80274 h -72.48437 c 1.836,-9.47377 5.98454,-17.07441 12.44726,-22.80274 6.46273,-5.80176 13.9915,-8.70312 22.58399,-8.70312 z m -207.87305,1.76367 c 7.05025,0 13.36582,1.72606 18.94727,5.17773 5.58144,3.45169 9.95145,8.11503 13.10937,13.99024 3.15792,5.8752 4.73633,12.33842 4.73633,19.38867 0,7.12369 -1.54247,13.84236 -4.62695,20.1582 -3.08449,6.31585 -7.45254,11.42018 -13.10743,15.3125 -5.65488,3.89233 -12.08217,5.8379 -19.27929,5.83789 -6.75649,0 -12.92442,-1.72605 -18.50586,-5.17773 -5.58145,-3.45168 -9.98935,-8.18885 -13.2207,-14.21094 -3.23137,-6.02208 -4.84571,-12.631 -4.84571,-19.82812 0,-7.56433 1.57841,-14.43065 4.73633,-20.59961 3.15792,-6.16897 7.52793,-11.05183 13.10938,-14.65039 5.58143,-3.59857 11.89701,-5.39844 18.94726,-5.39844 z m -366.50195,1.32227 c 6.90336,0 13.18106,1.83581 18.83593,5.50781 5.65489,3.59856 10.06279,8.37167 13.22071,14.32031 3.15792,5.94865 4.73633,12.37399 4.73633,19.27734 0,7.05025 -1.57841,13.54941 -4.73633,19.49805 -3.15792,5.94865 -7.56582,10.68582 -13.22071,14.21094 -5.65487,3.52512 -11.85874,5.28906 -18.61523,5.28906 -6.75649,0 -13.0002,-1.76394 -18.72851,-5.28906 -5.72833,-3.52512 -10.2081,-8.29823 -13.43946,-14.32031 -3.23136,-6.02209 -4.84765,-12.48531 -4.84765,-19.38868 0,-6.90335 1.61629,-13.36463 4.84765,-19.38671 3.23136,-6.02209 7.67519,-10.79715 13.33008,-14.32227 5.65489,-3.59856 11.8607,-5.39648 18.61719,-5.39648 z m 138.80078,0 c 6.90336,0 13.183,1.83581 18.83789,5.50781 5.65488,3.59856 10.06083,8.37167 13.21875,14.32031 3.15792,5.94865 4.73633,12.37399 4.73633,19.27734 0,7.05025 -1.57841,13.54941 -4.73633,19.49805 -3.15792,5.94865 -7.56387,10.68582 -13.21875,14.21094 -5.65489,3.52512 -11.8607,5.28906 -18.61719,5.28906 -6.75648,0 -12.99824,-1.76394 -18.72656,-5.28906 -5.72833,-3.52512 -10.20809,-8.29823 -13.43945,-14.32031 -3.23137,-6.02209 -4.84766,-12.48531 -4.84766,-19.38868 0,-6.90335 1.61629,-13.36463 4.84766,-19.38671 3.23136,-6.02209 7.67324,-10.79715 13.32812,-14.32227 5.65489,-3.59856 11.8607,-5.39648 18.61719,-5.39648 z" />
    <g
       id="g1509-6-6-5-8-1-6"
       transform="matrix(1.7393617,-0.67372312,0.66353876,1.7660584,182.31067,280.32384)"
       inkscape:export-xdpi="96"
       inkscape:export-ydpi="96">
      <g
         id="g4051-3-6-7-2-4-9-2-4"
         transform="matrix(-0.50151008,-0.15836109,0.14316967,-0.45340069,76.388777,-82.959486)"
         inkscape:export-xdpi="96"
         inkscape:export-ydpi="96">
        <path
           inkscape:transform-center-y="-4.5776365e-006"
           inkscape:transform-center-x="0.38559961"
           sodipodi:nodetypes="ccsaaszzc"
           inkscape:connector-curvature="0"
           d="m 79.447699,88.111028 c -1.112866,1.067189 -2.679315,7.290714 1.801323,13.947432 5.411567,7.1108 6.543757,4.79734 6.627824,4.70086 2.019055,-2.31719 1.801317,-2.31321 2.701724,-3.47005 1.396545,-1.79427 2.815466,-3.568163 4.188853,-5.383545 4.502399,-5.951399 13.353457,-18.053889 13.279427,-18.05602 -0.12046,-0.0035 -10.000004,2.065813 -14.198846,3.214154 -4.198842,1.148341 -7.030213,1.983971 -9.57468,3.001216 -2.544467,1.017245 -4.825625,2.045953 -4.825625,2.045953 z"
           style="opacity:1;fill:#ff9331;fill-opacity:1;stroke:none;stroke-width:2.7274251;stroke-linecap:square;stroke-linejoin:miter;stroke-miterlimit:4;stroke-dasharray:none;stroke-dashoffset:0;stroke-opacity:1;paint-order:markers stroke fill"
           id="path3790-5-2-2-7-9-9-0-3" />
        <path
           sodipodi:nodetypes="cscsccc"
           inkscape:connector-curvature="0"
           d="m 88.446747,101.93627 c 1.727815,-2.015671 3.698513,-4.052535 5.536709,-6.404722 4.421911,-5.658344 7.880514,-10.242637 10.682954,-13.881974 -0.051,-0.03009 -5.495075,1.739512 -11.895906,4.032815 -6.612068,2.368987 -7.733061,2.664965 -11.125141,4.08586 1.95603,1.139002 3.149545,2.849233 4.802526,4.892111 1.215467,1.957674 1.82573,3.502826 1.998858,7.27591 z"
           style="opacity:1;fill:#f32e5c;fill-opacity:1;stroke:none;stroke-width:2.07655907;stroke-linecap:square;stroke-linejoin:miter;stroke-miterlimit:4;stroke-dasharray:none;stroke-dashoffset:0;stroke-opacity:1;paint-order:markers stroke fill"
           id="path3792-0-3-1-7-9-0-0-1-6-3" />
      </g>
    </g>
    <path
       inkscape:transform-center-x="-0.050667428"
       sodipodi:nodetypes="cccc"
       inkscape:connector-curvature="0"
       d="m 162.17244,15.328881 c -6.9027,1.945363 0,0 -6.9027,1.945363 7.77202,3.019479 0,0 7.77202,3.019479 -0.86932,-4.964842 0,0 -0.86932,-4.964842 z"
       style="opacity:1;fill:#ff9331;fill-opacity:1;stroke:none;stroke-width:0.41715327;stroke-linecap:square;stroke-linejoin:miter;stroke-miterlimit:4;stroke-dasharray:none;stroke-dashoffset:0;stroke-opacity:1;paint-order:markers stroke fill"
       id="path3790-5-2-2-7-9-9-0-3-9-2"
       inkscape:transform-center-y="-0.033147848" />
  </g>
</svg>
